<mxfile host="app.diagrams.net" modified="2023-10-17T04:48:25.091Z" agent="Mozilla/5.0 (Windows NT 10.0; Win64; x64; rv:109.0) Gecko/20100101 Firefox/118.0" etag="YeH76DIFhQlfOqVFrp7W" version="22.0.4" type="github">
  <diagram name="Page-1" id="s6O07zQJtF4ZoTb8sSkp">
    <mxGraphModel dx="880" dy="425" grid="1" gridSize="10" guides="1" tooltips="1" connect="1" arrows="1" fold="1" page="1" pageScale="1" pageWidth="850" pageHeight="1100" math="0" shadow="0">
      <root>
        <mxCell id="0" />
        <mxCell id="1" parent="0" />
        <mxCell id="TxVh79v2LDjjA5fdh3rr-11" value="" style="edgeStyle=orthogonalEdgeStyle;rounded=0;orthogonalLoop=1;jettySize=auto;html=1;" edge="1" parent="1" source="TxVh79v2LDjjA5fdh3rr-1" target="TxVh79v2LDjjA5fdh3rr-3">
          <mxGeometry relative="1" as="geometry" />
        </mxCell>
        <mxCell id="TxVh79v2LDjjA5fdh3rr-1" value="Start" style="strokeWidth=2;html=1;shape=mxgraph.flowchart.terminator;whiteSpace=wrap;" vertex="1" parent="1">
          <mxGeometry x="375" y="40" width="135" height="70" as="geometry" />
        </mxCell>
        <mxCell id="TxVh79v2LDjjA5fdh3rr-8" value="" style="edgeStyle=orthogonalEdgeStyle;rounded=0;orthogonalLoop=1;jettySize=auto;html=1;" edge="1" parent="1" source="TxVh79v2LDjjA5fdh3rr-2" target="TxVh79v2LDjjA5fdh3rr-7">
          <mxGeometry relative="1" as="geometry" />
        </mxCell>
        <mxCell id="TxVh79v2LDjjA5fdh3rr-2" value="Lo=Phi x d" style="rounded=1;whiteSpace=wrap;html=1;absoluteArcSize=1;arcSize=14;strokeWidth=2;" vertex="1" parent="1">
          <mxGeometry x="580" y="160" width="100" height="100" as="geometry" />
        </mxCell>
        <mxCell id="TxVh79v2LDjjA5fdh3rr-4" value="" style="edgeStyle=orthogonalEdgeStyle;rounded=0;orthogonalLoop=1;jettySize=auto;html=1;" edge="1" parent="1" source="TxVh79v2LDjjA5fdh3rr-3" target="TxVh79v2LDjjA5fdh3rr-2">
          <mxGeometry relative="1" as="geometry" />
        </mxCell>
        <mxCell id="TxVh79v2LDjjA5fdh3rr-3" value="&lt;div&gt;Luas Lingkaran&lt;/div&gt;&lt;div&gt;phi&lt;/div&gt;&lt;div&gt;d&lt;br&gt;&lt;/div&gt;" style="shape=parallelogram;html=1;strokeWidth=2;perimeter=parallelogramPerimeter;whiteSpace=wrap;rounded=1;arcSize=12;size=0.23;" vertex="1" parent="1">
          <mxGeometry x="377.5" y="170" width="130" height="80" as="geometry" />
        </mxCell>
        <mxCell id="TxVh79v2LDjjA5fdh3rr-10" value="" style="edgeStyle=orthogonalEdgeStyle;rounded=0;orthogonalLoop=1;jettySize=auto;html=1;" edge="1" parent="1" source="TxVh79v2LDjjA5fdh3rr-7" target="TxVh79v2LDjjA5fdh3rr-9">
          <mxGeometry relative="1" as="geometry" />
        </mxCell>
        <mxCell id="TxVh79v2LDjjA5fdh3rr-7" value="Lo" style="shape=parallelogram;perimeter=parallelogramPerimeter;whiteSpace=wrap;html=1;fixedSize=1;rounded=1;arcSize=14;strokeWidth=2;" vertex="1" parent="1">
          <mxGeometry x="570" y="360" width="120" height="60" as="geometry" />
        </mxCell>
        <mxCell id="TxVh79v2LDjjA5fdh3rr-9" value="End" style="strokeWidth=2;html=1;shape=mxgraph.flowchart.terminator;whiteSpace=wrap;" vertex="1" parent="1">
          <mxGeometry x="385" y="360" width="100" height="60" as="geometry" />
        </mxCell>
      </root>
    </mxGraphModel>
  </diagram>
</mxfile>
